<mxfile host="65bd71144e">
    <diagram id="O1YpNwHKbESpmC5GwzHJ" name="Page-1">
        <mxGraphModel dx="1220" dy="876" grid="1" gridSize="10" guides="1" tooltips="1" connect="1" arrows="1" fold="1" page="1" pageScale="1" pageWidth="850" pageHeight="1100" math="0" shadow="0">
            <root>
                <mxCell id="0"/>
                <mxCell id="1" parent="0"/>
                <mxCell id="3" value="Active groups" style="shape=ext;double=1;rounded=0;whiteSpace=wrap;html=1;" vertex="1" parent="1">
                    <mxGeometry x="230" y="80" width="120" height="70" as="geometry"/>
                </mxCell>
                <mxCell id="4" value="Groups ready to spawn" style="shape=ext;double=1;rounded=0;whiteSpace=wrap;html=1;" vertex="1" parent="1">
                    <mxGeometry x="230" y="210" width="120" height="140" as="geometry"/>
                </mxCell>
                <mxCell id="5" value="1" style="shape=singleArrow;direction=north;whiteSpace=wrap;html=1;fillColor=#1ba1e2;fontColor=#ffffff;strokeColor=#006EAF;" vertex="1" parent="1">
                    <mxGeometry x="260" y="150" width="60" height="60" as="geometry"/>
                </mxCell>
                <mxCell id="6" value="Remaining configured groups" style="shape=ext;double=1;rounded=0;whiteSpace=wrap;html=1;" vertex="1" parent="1">
                    <mxGeometry x="230" y="410" width="120" height="140" as="geometry"/>
                </mxCell>
                <mxCell id="7" value="3" style="shape=singleArrow;direction=north;whiteSpace=wrap;html=1;fillColor=#A50040;fontColor=#ffffff;strokeColor=#6F0000;" vertex="1" parent="1">
                    <mxGeometry x="310" y="350" width="30" height="60" as="geometry"/>
                </mxCell>
                <mxCell id="8" value="Constant pressure set group lifecycle" style="text;strokeColor=none;fillColor=none;html=1;fontSize=24;fontStyle=1;verticalAlign=middle;align=center;" vertex="1" parent="1">
                    <mxGeometry x="375" y="20" width="100" height="40" as="geometry"/>
                </mxCell>
                <mxCell id="10" value="Random group" style="text;html=1;strokeColor=none;fillColor=none;align=center;verticalAlign=middle;whiteSpace=wrap;rounded=0;" vertex="1" parent="1">
                    <mxGeometry x="180" y="165" width="80" height="30" as="geometry"/>
                </mxCell>
                <mxCell id="12" value="&lt;code style=&quot;font-size: 17px; background-color: transparent;&quot;&gt;constant_pressure_set.new(&lt;br&gt;&lt;div style=&quot;&quot;&gt;&lt;span style=&quot;color: var(--vscode-textPreformat-foreground); font-family: var(--monaco-monospace-font); white-space: pre;&quot;&gt;&#9;&lt;/span&gt;&lt;span style=&quot;color: var(--vscode-textPreformat-foreground); font-family: var(--monaco-monospace-font);&quot;&gt;2,&lt;/span&gt;&lt;/div&gt;&lt;div style=&quot;&quot;&gt;&lt;span style=&quot;color: var(--vscode-textPreformat-foreground); font-family: var(--monaco-monospace-font);&quot;&gt;&lt;span style=&quot;white-space: pre;&quot;&gt;&#9;&lt;/span&gt;2,&lt;/span&gt;&lt;/div&gt;&lt;div style=&quot;&quot;&gt;&lt;span style=&quot;font-family: var(--monaco-monospace-font);&quot;&gt;&lt;span style=&quot;color: var(--vscode-textPreformat-foreground); white-space: pre;&quot;&gt;&#9;&lt;/span&gt;&lt;font color=&quot;#2d7600&quot;&gt;1800,&lt;/font&gt;&lt;/span&gt;&lt;/div&gt;&lt;div style=&quot;&quot;&gt;&lt;span style=&quot;font-family: var(--monaco-monospace-font);&quot;&gt;&lt;span style=&quot;color: var(--vscode-textPreformat-foreground); white-space: pre;&quot;&gt;&#9;&lt;/span&gt;&lt;font color=&quot;#a50040&quot;&gt;3600,&lt;/font&gt;&lt;/span&gt;&lt;/div&gt;&lt;div style=&quot;&quot;&gt;&lt;span style=&quot;font-family: var(--monaco-monospace-font);&quot;&gt;&lt;span style=&quot;color: var(--vscode-textPreformat-foreground); white-space: pre;&quot;&gt;&#9;&lt;/span&gt;&lt;font color=&quot;#006eaf&quot;&gt;10,&lt;/font&gt;&lt;/span&gt;&lt;/div&gt;&lt;div style=&quot;&quot;&gt;&lt;span style=&quot;font-family: var(--monaco-monospace-font);&quot;&gt;&lt;font color=&quot;#006eaf&quot;&gt;&lt;span style=&quot;white-space: pre;&quot;&gt;&#9;&lt;/span&gt;120,&amp;nbsp;&lt;/font&gt;&lt;/span&gt;&lt;/div&gt;&lt;div style=&quot;&quot;&gt;&lt;span style=&quot;color: var(--vscode-textPreformat-foreground); font-family: var(--monaco-monospace-font);&quot;&gt;&lt;span style=&quot;white-space: pre;&quot;&gt;&#9;&lt;/span&gt;&quot;Aerial-1&quot;,&lt;/span&gt;&lt;/div&gt;&lt;div style=&quot;&quot;&gt;&lt;span style=&quot;color: var(--vscode-textPreformat-foreground); font-family: var(--monaco-monospace-font);&quot;&gt;&lt;span style=&quot;white-space: pre;&quot;&gt;&#9;&lt;/span&gt;&quot;Aerial-2&quot;,&lt;/span&gt;&lt;/div&gt;&lt;div style=&quot;&quot;&gt;&lt;span style=&quot;color: var(--vscode-textPreformat-foreground); font-family: var(--monaco-monospace-font);&quot;&gt;&lt;span style=&quot;white-space: pre;&quot;&gt;&#9;&lt;/span&gt;&quot;Aerial-3&quot;,&lt;/span&gt;&lt;/div&gt;&lt;div style=&quot;&quot;&gt;&lt;span style=&quot;color: var(--vscode-textPreformat-foreground); font-family: var(--monaco-monospace-font);&quot;&gt;&lt;span style=&quot;white-space: pre;&quot;&gt;&#9;&lt;/span&gt;&quot;Aerial-4&quot;,&lt;/span&gt;&lt;/div&gt;&lt;div style=&quot;&quot;&gt;&lt;span style=&quot;color: var(--vscode-textPreformat-foreground); font-family: var(--monaco-monospace-font);&quot;&gt;&lt;span style=&quot;white-space: pre;&quot;&gt;&#9;&lt;/span&gt;&quot;Aerial-5&quot;,&lt;/span&gt;&lt;/div&gt;&lt;div style=&quot;&quot;&gt;&lt;span style=&quot;color: var(--vscode-textPreformat-foreground); font-family: var(--monaco-monospace-font);&quot;&gt;&lt;span style=&quot;white-space: pre;&quot;&gt;&#9;&lt;/span&gt;&quot;Aerial-6&quot;,&lt;/span&gt;&lt;/div&gt;&lt;div style=&quot;&quot;&gt;&lt;span style=&quot;color: var(--vscode-textPreformat-foreground); font-family: var(--monaco-monospace-font);&quot;&gt;&lt;span style=&quot;white-space: pre;&quot;&gt;&#9;&lt;/span&gt;&quot;Aerial-7&quot;&lt;/span&gt;&lt;/div&gt;&lt;div style=&quot;&quot;&gt;&lt;span style=&quot;color: var(--vscode-textPreformat-foreground); font-family: var(--monaco-monospace-font);&quot;&gt;)&lt;/span&gt;&lt;/div&gt;&lt;/code&gt;" style="text;html=1;strokeColor=none;fillColor=none;align=left;verticalAlign=middle;whiteSpace=wrap;rounded=0;labelBackgroundColor=none;" vertex="1" parent="1">
                    <mxGeometry x="575" y="115" width="235" height="330" as="geometry"/>
                </mxCell>
                <mxCell id="13" value="" style="endArrow=classic;html=1;entryX=1;entryY=0.357;entryDx=0;entryDy=0;entryPerimeter=0;exitX=0.002;exitY=0.086;exitDx=0;exitDy=0;exitPerimeter=0;" edge="1" parent="1" source="12" target="3">
                    <mxGeometry width="50" height="50" relative="1" as="geometry">
                        <mxPoint x="520" y="190" as="sourcePoint"/>
                        <mxPoint x="610" y="-10" as="targetPoint"/>
                    </mxGeometry>
                </mxCell>
                <mxCell id="14" value="" style="endArrow=classic;html=1;exitX=0.004;exitY=0.161;exitDx=0;exitDy=0;exitPerimeter=0;entryX=1.018;entryY=0.1;entryDx=0;entryDy=0;entryPerimeter=0;" edge="1" parent="1" source="12" target="4">
                    <mxGeometry width="50" height="50" relative="1" as="geometry">
                        <mxPoint x="520" y="210" as="sourcePoint"/>
                        <mxPoint x="360" y="220" as="targetPoint"/>
                    </mxGeometry>
                </mxCell>
                <mxCell id="15" value="" style="endArrow=classic;html=1;entryX=1;entryY=0.25;entryDx=0;entryDy=0;exitX=0.1;exitY=0.5;exitDx=0;exitDy=0;exitPerimeter=0;" edge="1" parent="1" source="27" target="6">
                    <mxGeometry width="50" height="50" relative="1" as="geometry">
                        <mxPoint x="755" y="288" as="sourcePoint"/>
                        <mxPoint x="360" y="114.99000000000001" as="targetPoint"/>
                    </mxGeometry>
                </mxCell>
                <mxCell id="18" value="Random delay" style="text;html=1;strokeColor=none;fillColor=none;align=center;verticalAlign=middle;whiteSpace=wrap;rounded=0;fontColor=#006EAF;" vertex="1" parent="1">
                    <mxGeometry x="320" y="165" width="70" height="25" as="geometry"/>
                </mxCell>
                <mxCell id="19" value="" style="endArrow=classic;html=1;exitX=0.1;exitY=0.5;exitDx=0;exitDy=0;exitPerimeter=0;fillColor=#1ba1e2;strokeColor=#006EAF;" edge="1" parent="1" source="20" target="18">
                    <mxGeometry width="50" height="50" relative="1" as="geometry">
                        <mxPoint x="510" y="230" as="sourcePoint"/>
                        <mxPoint x="610" y="100" as="targetPoint"/>
                        <Array as="points">
                            <mxPoint x="470" y="178"/>
                        </Array>
                    </mxGeometry>
                </mxCell>
                <mxCell id="20" value="" style="shape=curlyBracket;whiteSpace=wrap;html=1;rounded=1;labelPosition=left;verticalLabelPosition=middle;align=right;verticalAlign=middle;fillColor=#1ba1e2;fontColor=#ffffff;strokeColor=#006EAF;" vertex="1" parent="1">
                    <mxGeometry x="548" y="220" width="15" height="40" as="geometry"/>
                </mxCell>
                <mxCell id="22" value="2" style="shape=flexArrow;endArrow=classic;html=1;fillColor=#A50040;strokeColor=#A50040;labelBackgroundColor=none;labelBorderColor=none;" edge="1" parent="1">
                    <mxGeometry width="50" height="50" relative="1" as="geometry">
                        <mxPoint x="160" y="140" as="sourcePoint"/>
                        <mxPoint x="160" y="490" as="targetPoint"/>
                        <Array as="points">
                            <mxPoint x="160" y="310"/>
                        </Array>
                    </mxGeometry>
                </mxCell>
                <mxCell id="23" value="2" style="shape=flexArrow;endArrow=classic;html=1;fillColor=#60a917;strokeColor=#2D7600;labelBackgroundColor=none;" edge="1" parent="1">
                    <mxGeometry x="0.0286" width="50" height="50" relative="1" as="geometry">
                        <mxPoint x="90" y="140" as="sourcePoint"/>
                        <mxPoint x="90" y="490" as="targetPoint"/>
                        <Array as="points"/>
                        <mxPoint as="offset"/>
                    </mxGeometry>
                </mxCell>
                <mxCell id="25" value="Group dies" style="text;html=1;strokeColor=none;fillColor=none;align=center;verticalAlign=middle;whiteSpace=wrap;rounded=0;" vertex="1" parent="1">
                    <mxGeometry x="130" y="100" width="60" height="30" as="geometry"/>
                </mxCell>
                <mxCell id="26" value="Air group idle" style="text;html=1;strokeColor=none;fillColor=none;align=center;verticalAlign=middle;whiteSpace=wrap;rounded=0;" vertex="1" parent="1">
                    <mxGeometry x="60" y="100" width="60" height="30" as="geometry"/>
                </mxCell>
                <mxCell id="27" value="" style="shape=curlyBracket;whiteSpace=wrap;html=1;rounded=1;labelPosition=left;verticalLabelPosition=middle;align=right;verticalAlign=middle;" vertex="1" parent="1">
                    <mxGeometry x="548" y="260" width="15" height="140" as="geometry"/>
                </mxCell>
                <mxCell id="28" value="3" style="shape=singleArrow;direction=north;whiteSpace=wrap;html=1;fillColor=#60a917;fontColor=#ffffff;strokeColor=#2D7600;" vertex="1" parent="1">
                    <mxGeometry x="240" y="350" width="30" height="60" as="geometry"/>
                </mxCell>
                <mxCell id="29" value="" style="endArrow=classic;html=1;fontSize=17;entryX=0.203;entryY=0.717;entryDx=0;entryDy=0;entryPerimeter=0;exitX=-0.004;exitY=0.28;exitDx=0;exitDy=0;exitPerimeter=0;fillColor=#d80073;strokeColor=#A50040;" edge="1" parent="1" source="12" target="7">
                    <mxGeometry width="50" height="50" relative="1" as="geometry">
                        <mxPoint x="360" y="270" as="sourcePoint"/>
                        <mxPoint x="410" y="220" as="targetPoint"/>
                        <Array as="points">
                            <mxPoint x="510" y="230"/>
                            <mxPoint x="400" y="398"/>
                        </Array>
                    </mxGeometry>
                </mxCell>
                <mxCell id="31" value="&lt;font color=&quot;#a50040&quot; style=&quot;font-size: 12px;&quot;&gt;Delay&lt;/font&gt;" style="edgeLabel;html=1;align=center;verticalAlign=middle;resizable=0;points=[];fontSize=17;" vertex="1" connectable="0" parent="29">
                    <mxGeometry x="-0.0739" y="1" relative="1" as="geometry">
                        <mxPoint x="-22" y="35" as="offset"/>
                    </mxGeometry>
                </mxCell>
                <mxCell id="30" value="" style="endArrow=classic;html=1;fontSize=17;entryX=0;entryY=0;entryDx=24;entryDy=19.5;entryPerimeter=0;exitX=0.002;exitY=0.222;exitDx=0;exitDy=0;exitPerimeter=0;fillColor=#60a917;strokeColor=#2D7600;" edge="1" parent="1" source="12" target="28">
                    <mxGeometry width="50" height="50" relative="1" as="geometry">
                        <mxPoint x="583.56" y="217.4000000000001" as="sourcePoint"/>
                        <mxPoint x="339.5" y="396" as="targetPoint"/>
                        <Array as="points">
                            <mxPoint x="490" y="220"/>
                            <mxPoint x="380" y="386"/>
                        </Array>
                    </mxGeometry>
                </mxCell>
                <mxCell id="32" value="&lt;font color=&quot;#2d7600&quot; style=&quot;font-size: 12px;&quot;&gt;Delay&lt;/font&gt;" style="edgeLabel;html=1;align=center;verticalAlign=middle;resizable=0;points=[];fontSize=17;" vertex="1" connectable="0" parent="30">
                    <mxGeometry x="-0.1299" relative="1" as="geometry">
                        <mxPoint as="offset"/>
                    </mxGeometry>
                </mxCell>
                <mxCell id="33" value="Random group" style="text;html=1;strokeColor=none;fillColor=none;align=center;verticalAlign=middle;whiteSpace=wrap;rounded=0;" vertex="1" parent="1">
                    <mxGeometry x="170" y="370" width="80" height="30" as="geometry"/>
                </mxCell>
                <mxCell id="35" value="&lt;ol&gt;&lt;li&gt;If active groups fewer than target, and group(s) ready to spawn. &lt;font color=&quot;#006eaf&quot;&gt;Group spawns with random delay.&lt;/font&gt;&amp;nbsp;&lt;/li&gt;&lt;li&gt;When a group &lt;font color=&quot;#a50040&quot;&gt;dies&lt;/font&gt; or&lt;font color=&quot;#2d7600&quot;&gt; completes (or aborts) all tasking, &lt;/font&gt;it no-longer counts towards active total&lt;/li&gt;&lt;li&gt;After a delay depending on whether group &lt;font color=&quot;#a50040&quot;&gt;died&lt;/font&gt; or went &lt;font color=&quot;#2d7600&quot;&gt;idle&lt;/font&gt;, a new group is added to &lt;i&gt;ready to spawn&lt;/i&gt;&amp;nbsp;list (but not necessarily the same one that de-activated)&lt;/li&gt;&lt;/ol&gt;" style="text;strokeColor=none;fillColor=none;html=1;whiteSpace=wrap;verticalAlign=middle;overflow=hidden;fontSize=12;fontColor=#FFFFFF;" vertex="1" parent="1">
                    <mxGeometry x="60" y="580" width="580" height="100" as="geometry"/>
                </mxCell>
            </root>
        </mxGraphModel>
    </diagram>
</mxfile>